<mxfile host="app.diagrams.net" agent="Mozilla/5.0 (Windows NT 10.0; Win64; x64) AppleWebKit/537.36 (KHTML, like Gecko) Chrome/141.0.0.0 Safari/537.36" version="28.2.7">
  <diagram name="Page-1" id="qbc72fGyRK3lvK2T4x1s">
    <mxGraphModel dx="2276" dy="811" grid="1" gridSize="10" guides="1" tooltips="1" connect="1" arrows="1" fold="1" page="1" pageScale="1" pageWidth="850" pageHeight="1100" math="0" shadow="0">
      <root>
        <mxCell id="0" />
        <mxCell id="1" parent="0" />
        <mxCell id="3ZCdugnIEe6y5VKqGSUt-1" value="Booking" style="rounded=0;whiteSpace=wrap;html=1;" vertex="1" parent="1">
          <mxGeometry x="310" y="170" width="120" height="60" as="geometry" />
        </mxCell>
        <mxCell id="3ZCdugnIEe6y5VKqGSUt-2" value="Payment" style="shape=ext;margin=3;double=1;whiteSpace=wrap;html=1;align=center;" vertex="1" parent="1">
          <mxGeometry x="-60" y="170" width="120" height="60" as="geometry" />
        </mxCell>
        <mxCell id="3ZCdugnIEe6y5VKqGSUt-3" value="Review" style="shape=ext;margin=3;double=1;whiteSpace=wrap;html=1;align=center;" vertex="1" parent="1">
          <mxGeometry x="-140" y="320" width="120" height="60" as="geometry" />
        </mxCell>
        <mxCell id="3ZCdugnIEe6y5VKqGSUt-4" value="User" style="rounded=0;whiteSpace=wrap;html=1;" vertex="1" parent="1">
          <mxGeometry x="750" y="170" width="120" height="60" as="geometry" />
        </mxCell>
        <mxCell id="3ZCdugnIEe6y5VKqGSUt-5" value="Amenity" style="rounded=0;whiteSpace=wrap;html=1;" vertex="1" parent="1">
          <mxGeometry x="520" y="660" width="120" height="60" as="geometry" />
        </mxCell>
        <mxCell id="3ZCdugnIEe6y5VKqGSUt-6" value="Property Amenity" style="shape=associativeEntity;whiteSpace=wrap;html=1;align=center;" vertex="1" parent="1">
          <mxGeometry x="260" y="560" width="140" height="60" as="geometry" />
        </mxCell>
        <mxCell id="3ZCdugnIEe6y5VKqGSUt-7" value="Property" style="rounded=0;whiteSpace=wrap;html=1;" vertex="1" parent="1">
          <mxGeometry x="510" y="330" width="120" height="60" as="geometry" />
        </mxCell>
        <mxCell id="3ZCdugnIEe6y5VKqGSUt-8" value="" style="endArrow=none;html=1;rounded=0;exitX=1;exitY=0.5;exitDx=0;exitDy=0;" edge="1" parent="1" source="3ZCdugnIEe6y5VKqGSUt-21" target="3ZCdugnIEe6y5VKqGSUt-2">
          <mxGeometry relative="1" as="geometry">
            <mxPoint x="10" y="279" as="sourcePoint" />
            <mxPoint x="170" y="279" as="targetPoint" />
          </mxGeometry>
        </mxCell>
        <mxCell id="3ZCdugnIEe6y5VKqGSUt-9" value="" style="endArrow=none;html=1;rounded=0;exitX=0.5;exitY=1;exitDx=0;exitDy=0;" edge="1" parent="1" source="3ZCdugnIEe6y5VKqGSUt-12" target="3ZCdugnIEe6y5VKqGSUt-2">
          <mxGeometry relative="1" as="geometry">
            <mxPoint x="140.1005800592884" y="127.68858761116553" as="sourcePoint" />
            <mxPoint x="107" y="329" as="targetPoint" />
          </mxGeometry>
        </mxCell>
        <mxCell id="3ZCdugnIEe6y5VKqGSUt-10" value="" style="endArrow=none;html=1;rounded=0;" edge="1" parent="1" source="3ZCdugnIEe6y5VKqGSUt-11" target="3ZCdugnIEe6y5VKqGSUt-2">
          <mxGeometry relative="1" as="geometry">
            <mxPoint x="243.5629276960285" y="138.46974369014606" as="sourcePoint" />
            <mxPoint x="177" y="329" as="targetPoint" />
          </mxGeometry>
        </mxCell>
        <mxCell id="3ZCdugnIEe6y5VKqGSUt-11" value="payment date" style="ellipse;whiteSpace=wrap;html=1;align=center;fontStyle=4;" vertex="1" parent="1">
          <mxGeometry x="20" y="50" width="100" height="40" as="geometry" />
        </mxCell>
        <mxCell id="3ZCdugnIEe6y5VKqGSUt-12" value="payment method" style="ellipse;shape=doubleEllipse;margin=3;whiteSpace=wrap;html=1;align=center;" vertex="1" parent="1">
          <mxGeometry x="-120" y="60" width="100" height="40" as="geometry" />
        </mxCell>
        <mxCell id="3ZCdugnIEe6y5VKqGSUt-13" value="attached to" style="shape=rhombus;perimeter=rhombusPerimeter;whiteSpace=wrap;html=1;align=center;" vertex="1" parent="1">
          <mxGeometry x="120" y="170" width="120" height="60" as="geometry" />
        </mxCell>
        <mxCell id="3ZCdugnIEe6y5VKqGSUt-14" value="" style="endArrow=none;html=1;rounded=0;exitX=1;exitY=0.5;exitDx=0;exitDy=0;entryX=0;entryY=0.5;entryDx=0;entryDy=0;" edge="1" parent="1" source="3ZCdugnIEe6y5VKqGSUt-13" target="3ZCdugnIEe6y5VKqGSUt-1">
          <mxGeometry relative="1" as="geometry">
            <mxPoint x="470" y="310" as="sourcePoint" />
            <mxPoint x="630" y="310" as="targetPoint" />
          </mxGeometry>
        </mxCell>
        <mxCell id="3ZCdugnIEe6y5VKqGSUt-15" value="" style="endArrow=none;html=1;rounded=0;exitX=1;exitY=0.5;exitDx=0;exitDy=0;entryX=0;entryY=0.5;entryDx=0;entryDy=0;" edge="1" parent="1" source="3ZCdugnIEe6y5VKqGSUt-2" target="3ZCdugnIEe6y5VKqGSUt-13">
          <mxGeometry relative="1" as="geometry">
            <mxPoint x="440" y="250" as="sourcePoint" />
            <mxPoint x="460" y="300" as="targetPoint" />
          </mxGeometry>
        </mxCell>
        <mxCell id="3ZCdugnIEe6y5VKqGSUt-16" value="check in date" style="ellipse;whiteSpace=wrap;html=1;align=center;fontStyle=4;" vertex="1" parent="1">
          <mxGeometry x="420" y="50" width="100" height="40" as="geometry" />
        </mxCell>
        <mxCell id="3ZCdugnIEe6y5VKqGSUt-17" value="" style="endArrow=none;html=1;rounded=0;exitX=0.5;exitY=0;exitDx=0;exitDy=0;" edge="1" parent="1" source="3ZCdugnIEe6y5VKqGSUt-1" target="3ZCdugnIEe6y5VKqGSUt-16">
          <mxGeometry relative="1" as="geometry">
            <mxPoint x="260" y="120" as="sourcePoint" />
            <mxPoint x="330" y="120" as="targetPoint" />
          </mxGeometry>
        </mxCell>
        <mxCell id="3ZCdugnIEe6y5VKqGSUt-18" value="check out date" style="ellipse;whiteSpace=wrap;html=1;align=center;fontStyle=4;" vertex="1" parent="1">
          <mxGeometry x="230" y="50" width="100" height="40" as="geometry" />
        </mxCell>
        <mxCell id="3ZCdugnIEe6y5VKqGSUt-19" value="" style="endArrow=none;html=1;rounded=0;exitX=0.25;exitY=0;exitDx=0;exitDy=0;entryX=0.5;entryY=1;entryDx=0;entryDy=0;" edge="1" parent="1" source="3ZCdugnIEe6y5VKqGSUt-1" target="3ZCdugnIEe6y5VKqGSUt-18">
          <mxGeometry relative="1" as="geometry">
            <mxPoint x="620" y="144" as="sourcePoint" />
            <mxPoint x="700" y="100" as="targetPoint" />
          </mxGeometry>
        </mxCell>
        <mxCell id="3ZCdugnIEe6y5VKqGSUt-20" value="total price" style="ellipse;whiteSpace=wrap;html=1;align=center;" vertex="1" parent="1">
          <mxGeometry x="130" y="310" width="100" height="40" as="geometry" />
        </mxCell>
        <mxCell id="3ZCdugnIEe6y5VKqGSUt-21" value="amount" style="ellipse;whiteSpace=wrap;html=1;align=center;" vertex="1" parent="1">
          <mxGeometry x="-220" y="180" width="100" height="40" as="geometry" />
        </mxCell>
        <mxCell id="3ZCdugnIEe6y5VKqGSUt-22" value="" style="endArrow=none;html=1;rounded=0;entryX=0.25;entryY=1;entryDx=0;entryDy=0;" edge="1" parent="1" source="3ZCdugnIEe6y5VKqGSUt-20" target="3ZCdugnIEe6y5VKqGSUt-1">
          <mxGeometry relative="1" as="geometry">
            <mxPoint x="520" y="300" as="sourcePoint" />
            <mxPoint x="480" y="230" as="targetPoint" />
          </mxGeometry>
        </mxCell>
        <mxCell id="3ZCdugnIEe6y5VKqGSUt-23" value="status" style="ellipse;shape=doubleEllipse;margin=3;whiteSpace=wrap;html=1;align=center;" vertex="1" parent="1">
          <mxGeometry x="260" y="310" width="100" height="40" as="geometry" />
        </mxCell>
        <mxCell id="3ZCdugnIEe6y5VKqGSUt-24" value="" style="endArrow=none;html=1;rounded=0;entryX=0.5;entryY=1;entryDx=0;entryDy=0;" edge="1" parent="1" source="3ZCdugnIEe6y5VKqGSUt-23" target="3ZCdugnIEe6y5VKqGSUt-1">
          <mxGeometry relative="1" as="geometry">
            <mxPoint x="440" y="300" as="sourcePoint" />
            <mxPoint x="420" y="250" as="targetPoint" />
          </mxGeometry>
        </mxCell>
        <mxCell id="3ZCdugnIEe6y5VKqGSUt-29" value="attached to" style="shape=rhombus;perimeter=rhombusPerimeter;whiteSpace=wrap;html=1;align=center;" vertex="1" parent="1">
          <mxGeometry x="530" y="170" width="120" height="60" as="geometry" />
        </mxCell>
        <mxCell id="3ZCdugnIEe6y5VKqGSUt-30" value="" style="endArrow=none;html=1;rounded=0;exitX=1;exitY=0.5;exitDx=0;exitDy=0;entryX=0;entryY=0.5;entryDx=0;entryDy=0;" edge="1" parent="1" source="3ZCdugnIEe6y5VKqGSUt-1" target="3ZCdugnIEe6y5VKqGSUt-29">
          <mxGeometry relative="1" as="geometry">
            <mxPoint x="560" y="260" as="sourcePoint" />
            <mxPoint x="630" y="260" as="targetPoint" />
          </mxGeometry>
        </mxCell>
        <mxCell id="3ZCdugnIEe6y5VKqGSUt-31" value="" style="endArrow=none;html=1;rounded=0;exitX=1;exitY=0.5;exitDx=0;exitDy=0;" edge="1" parent="1" source="3ZCdugnIEe6y5VKqGSUt-29" target="3ZCdugnIEe6y5VKqGSUt-4">
          <mxGeometry relative="1" as="geometry">
            <mxPoint x="590" y="260" as="sourcePoint" />
            <mxPoint x="660" y="260" as="targetPoint" />
          </mxGeometry>
        </mxCell>
        <mxCell id="3ZCdugnIEe6y5VKqGSUt-32" value="email" style="ellipse;whiteSpace=wrap;html=1;align=center;fontStyle=4;" vertex="1" parent="1">
          <mxGeometry x="840" y="50" width="100" height="40" as="geometry" />
        </mxCell>
        <mxCell id="3ZCdugnIEe6y5VKqGSUt-33" value="" style="endArrow=none;html=1;rounded=0;exitX=0.75;exitY=0;exitDx=0;exitDy=0;entryX=0.5;entryY=1;entryDx=0;entryDy=0;" edge="1" parent="1" source="3ZCdugnIEe6y5VKqGSUt-4" target="3ZCdugnIEe6y5VKqGSUt-32">
          <mxGeometry relative="1" as="geometry">
            <mxPoint x="760" y="120" as="sourcePoint" />
            <mxPoint x="820" y="120" as="targetPoint" />
          </mxGeometry>
        </mxCell>
        <mxCell id="3ZCdugnIEe6y5VKqGSUt-34" value="full name" style="ellipse;whiteSpace=wrap;html=1;align=center;" vertex="1" parent="1">
          <mxGeometry x="700" y="50" width="100" height="40" as="geometry" />
        </mxCell>
        <mxCell id="3ZCdugnIEe6y5VKqGSUt-35" value="" style="endArrow=none;html=1;rounded=0;exitX=0.25;exitY=0;exitDx=0;exitDy=0;entryX=0.5;entryY=1;entryDx=0;entryDy=0;" edge="1" parent="1" source="3ZCdugnIEe6y5VKqGSUt-4" target="3ZCdugnIEe6y5VKqGSUt-34">
          <mxGeometry relative="1" as="geometry">
            <mxPoint x="730" y="210" as="sourcePoint" />
            <mxPoint x="790" y="140" as="targetPoint" />
          </mxGeometry>
        </mxCell>
        <mxCell id="3ZCdugnIEe6y5VKqGSUt-36" value="password hash" style="ellipse;whiteSpace=wrap;html=1;align=center;" vertex="1" parent="1">
          <mxGeometry x="980" y="120" width="100" height="40" as="geometry" />
        </mxCell>
        <mxCell id="3ZCdugnIEe6y5VKqGSUt-37" value="" style="endArrow=none;html=1;rounded=0;exitX=1;exitY=0.25;exitDx=0;exitDy=0;entryX=0;entryY=1;entryDx=0;entryDy=0;" edge="1" parent="1" source="3ZCdugnIEe6y5VKqGSUt-4" target="3ZCdugnIEe6y5VKqGSUt-36">
          <mxGeometry relative="1" as="geometry">
            <mxPoint x="920" y="230" as="sourcePoint" />
            <mxPoint x="970" y="150" as="targetPoint" />
          </mxGeometry>
        </mxCell>
        <mxCell id="3ZCdugnIEe6y5VKqGSUt-40" value="role" style="ellipse;shape=doubleEllipse;margin=3;whiteSpace=wrap;html=1;align=center;" vertex="1" parent="1">
          <mxGeometry x="960" y="290" width="100" height="40" as="geometry" />
        </mxCell>
        <mxCell id="3ZCdugnIEe6y5VKqGSUt-41" value="" style="endArrow=none;html=1;rounded=0;exitX=0.75;exitY=1;exitDx=0;exitDy=0;entryX=0;entryY=0;entryDx=0;entryDy=0;" edge="1" parent="1" source="3ZCdugnIEe6y5VKqGSUt-4" target="3ZCdugnIEe6y5VKqGSUt-40">
          <mxGeometry relative="1" as="geometry">
            <mxPoint x="910" y="265" as="sourcePoint" />
            <mxPoint x="1050" y="240" as="targetPoint" />
          </mxGeometry>
        </mxCell>
        <mxCell id="3ZCdugnIEe6y5VKqGSUt-42" value="date created" style="ellipse;whiteSpace=wrap;html=1;align=center;fontStyle=4;" vertex="1" parent="1">
          <mxGeometry x="850" y="330" width="100" height="40" as="geometry" />
        </mxCell>
        <mxCell id="3ZCdugnIEe6y5VKqGSUt-43" value="" style="endArrow=none;html=1;rounded=0;exitX=0.25;exitY=1;exitDx=0;exitDy=0;entryX=0.5;entryY=0;entryDx=0;entryDy=0;" edge="1" parent="1" source="3ZCdugnIEe6y5VKqGSUt-4" target="3ZCdugnIEe6y5VKqGSUt-42">
          <mxGeometry relative="1" as="geometry">
            <mxPoint x="800" y="250" as="sourcePoint" />
            <mxPoint x="875" y="306" as="targetPoint" />
          </mxGeometry>
        </mxCell>
        <mxCell id="3ZCdugnIEe6y5VKqGSUt-44" value="contained within" style="shape=rhombus;perimeter=rhombusPerimeter;whiteSpace=wrap;html=1;align=center;" vertex="1" parent="1">
          <mxGeometry x="240" y="360" width="120" height="60" as="geometry" />
        </mxCell>
        <mxCell id="3ZCdugnIEe6y5VKqGSUt-45" value="attached to" style="shape=rhombus;perimeter=rhombusPerimeter;whiteSpace=wrap;html=1;align=center;" vertex="1" parent="1">
          <mxGeometry x="380" y="250" width="120" height="60" as="geometry" />
        </mxCell>
        <mxCell id="3ZCdugnIEe6y5VKqGSUt-46" value="" style="endArrow=none;html=1;rounded=0;entryX=0.75;entryY=1;entryDx=0;entryDy=0;exitX=0;exitY=0.5;exitDx=0;exitDy=0;" edge="1" parent="1" source="3ZCdugnIEe6y5VKqGSUt-45" target="3ZCdugnIEe6y5VKqGSUt-1">
          <mxGeometry relative="1" as="geometry">
            <mxPoint x="480" y="330" as="sourcePoint" />
            <mxPoint x="519" y="260" as="targetPoint" />
          </mxGeometry>
        </mxCell>
        <mxCell id="3ZCdugnIEe6y5VKqGSUt-47" value="" style="endArrow=none;html=1;rounded=0;entryX=1;entryY=0.5;entryDx=0;entryDy=0;exitX=0;exitY=0;exitDx=0;exitDy=0;" edge="1" parent="1" source="3ZCdugnIEe6y5VKqGSUt-7" target="3ZCdugnIEe6y5VKqGSUt-45">
          <mxGeometry relative="1" as="geometry">
            <mxPoint x="640" y="350" as="sourcePoint" />
            <mxPoint x="679" y="280" as="targetPoint" />
          </mxGeometry>
        </mxCell>
        <mxCell id="3ZCdugnIEe6y5VKqGSUt-48" value="attached to" style="shape=rhombus;perimeter=rhombusPerimeter;whiteSpace=wrap;html=1;align=center;" vertex="1" parent="1">
          <mxGeometry x="650" y="250" width="120" height="60" as="geometry" />
        </mxCell>
        <mxCell id="3ZCdugnIEe6y5VKqGSUt-49" value="" style="endArrow=none;html=1;rounded=0;entryX=1;entryY=0;entryDx=0;entryDy=0;exitX=0;exitY=0.5;exitDx=0;exitDy=0;" edge="1" parent="1" source="3ZCdugnIEe6y5VKqGSUt-48" target="3ZCdugnIEe6y5VKqGSUt-7">
          <mxGeometry relative="1" as="geometry">
            <mxPoint x="750" y="410" as="sourcePoint" />
            <mxPoint x="720" y="360" as="targetPoint" />
          </mxGeometry>
        </mxCell>
        <mxCell id="3ZCdugnIEe6y5VKqGSUt-50" value="" style="endArrow=none;html=1;rounded=0;entryX=0.5;entryY=0;entryDx=0;entryDy=0;exitX=0;exitY=1;exitDx=0;exitDy=0;" edge="1" parent="1" source="3ZCdugnIEe6y5VKqGSUt-4" target="3ZCdugnIEe6y5VKqGSUt-48">
          <mxGeometry relative="1" as="geometry">
            <mxPoint x="810" y="370" as="sourcePoint" />
            <mxPoint x="750" y="410" as="targetPoint" />
          </mxGeometry>
        </mxCell>
        <mxCell id="3ZCdugnIEe6y5VKqGSUt-51" value="Property Image" style="shape=ext;margin=3;double=1;whiteSpace=wrap;html=1;align=center;" vertex="1" parent="1">
          <mxGeometry x="70" y="530" width="100" height="40" as="geometry" />
        </mxCell>
        <mxCell id="3ZCdugnIEe6y5VKqGSUt-52" value="" style="endArrow=none;html=1;rounded=0;entryX=0;entryY=0.5;entryDx=0;entryDy=0;exitX=1;exitY=0.5;exitDx=0;exitDy=0;" edge="1" parent="1" source="3ZCdugnIEe6y5VKqGSUt-51" target="3ZCdugnIEe6y5VKqGSUt-44">
          <mxGeometry relative="1" as="geometry">
            <mxPoint x="330" y="530" as="sourcePoint" />
            <mxPoint x="340" y="440" as="targetPoint" />
          </mxGeometry>
        </mxCell>
        <mxCell id="3ZCdugnIEe6y5VKqGSUt-53" value="" style="endArrow=none;html=1;rounded=0;entryX=0;entryY=0.5;entryDx=0;entryDy=0;exitX=1;exitY=0.5;exitDx=0;exitDy=0;" edge="1" parent="1" source="3ZCdugnIEe6y5VKqGSUt-44" target="3ZCdugnIEe6y5VKqGSUt-7">
          <mxGeometry relative="1" as="geometry">
            <mxPoint x="510" y="530" as="sourcePoint" />
            <mxPoint x="520" y="440" as="targetPoint" />
          </mxGeometry>
        </mxCell>
        <mxCell id="3ZCdugnIEe6y5VKqGSUt-57" value="title" style="ellipse;whiteSpace=wrap;html=1;align=center;fontStyle=4;" vertex="1" parent="1">
          <mxGeometry x="520" y="520" width="100" height="40" as="geometry" />
        </mxCell>
        <mxCell id="3ZCdugnIEe6y5VKqGSUt-59" value="price per night" style="ellipse;whiteSpace=wrap;html=1;align=center;" vertex="1" parent="1">
          <mxGeometry x="730" y="510" width="100" height="40" as="geometry" />
        </mxCell>
        <mxCell id="3ZCdugnIEe6y5VKqGSUt-61" value="date added" style="ellipse;whiteSpace=wrap;html=1;align=center;fontStyle=4;" vertex="1" parent="1">
          <mxGeometry x="730" y="340" width="100" height="40" as="geometry" />
        </mxCell>
        <mxCell id="3ZCdugnIEe6y5VKqGSUt-66" value="" style="endArrow=none;html=1;rounded=0;entryX=0.5;entryY=1;entryDx=0;entryDy=0;exitX=0.5;exitY=0;exitDx=0;exitDy=0;" edge="1" parent="1" source="3ZCdugnIEe6y5VKqGSUt-57" target="3ZCdugnIEe6y5VKqGSUt-7">
          <mxGeometry relative="1" as="geometry">
            <mxPoint x="710" y="471" as="sourcePoint" />
            <mxPoint x="785" y="430" as="targetPoint" />
          </mxGeometry>
        </mxCell>
        <mxCell id="3ZCdugnIEe6y5VKqGSUt-67" value="" style="endArrow=none;html=1;rounded=0;entryX=1;entryY=1;entryDx=0;entryDy=0;exitX=0;exitY=0.5;exitDx=0;exitDy=0;" edge="1" parent="1" source="3ZCdugnIEe6y5VKqGSUt-59" target="3ZCdugnIEe6y5VKqGSUt-7">
          <mxGeometry relative="1" as="geometry">
            <mxPoint x="710" y="441" as="sourcePoint" />
            <mxPoint x="785" y="400" as="targetPoint" />
          </mxGeometry>
        </mxCell>
        <mxCell id="3ZCdugnIEe6y5VKqGSUt-69" value="attached to" style="shape=rhombus;perimeter=rhombusPerimeter;whiteSpace=wrap;html=1;align=center;" vertex="1" parent="1">
          <mxGeometry x="30" y="260" width="120" height="60" as="geometry" />
        </mxCell>
        <mxCell id="3ZCdugnIEe6y5VKqGSUt-70" value="" style="endArrow=none;html=1;rounded=0;exitX=1;exitY=0.5;exitDx=0;exitDy=0;entryX=0;entryY=0.75;entryDx=0;entryDy=0;" edge="1" parent="1" source="3ZCdugnIEe6y5VKqGSUt-69" target="3ZCdugnIEe6y5VKqGSUt-1">
          <mxGeometry relative="1" as="geometry">
            <mxPoint x="210" y="240" as="sourcePoint" />
            <mxPoint x="280" y="240" as="targetPoint" />
          </mxGeometry>
        </mxCell>
        <mxCell id="3ZCdugnIEe6y5VKqGSUt-71" value="" style="endArrow=none;html=1;rounded=0;exitX=1;exitY=0.5;exitDx=0;exitDy=0;entryX=0;entryY=0.5;entryDx=0;entryDy=0;" edge="1" parent="1" source="3ZCdugnIEe6y5VKqGSUt-3" target="3ZCdugnIEe6y5VKqGSUt-69">
          <mxGeometry relative="1" as="geometry">
            <mxPoint x="120" y="250" as="sourcePoint" />
            <mxPoint x="190" y="250" as="targetPoint" />
          </mxGeometry>
        </mxCell>
        <mxCell id="3ZCdugnIEe6y5VKqGSUt-72" value="name" style="ellipse;whiteSpace=wrap;html=1;align=center;fontStyle=4;" vertex="1" parent="1">
          <mxGeometry x="690" y="670" width="100" height="40" as="geometry" />
        </mxCell>
        <mxCell id="3ZCdugnIEe6y5VKqGSUt-73" value="" style="endArrow=none;html=1;rounded=0;entryX=0;entryY=0.5;entryDx=0;entryDy=0;exitX=1;exitY=0.5;exitDx=0;exitDy=0;" edge="1" parent="1" source="3ZCdugnIEe6y5VKqGSUt-5" target="3ZCdugnIEe6y5VKqGSUt-72">
          <mxGeometry relative="1" as="geometry">
            <mxPoint x="490" y="610" as="sourcePoint" />
            <mxPoint x="640" y="580" as="targetPoint" />
          </mxGeometry>
        </mxCell>
        <mxCell id="3ZCdugnIEe6y5VKqGSUt-74" value="" style="endArrow=none;html=1;rounded=0;entryX=0;entryY=1;entryDx=0;entryDy=0;exitX=0.5;exitY=0;exitDx=0;exitDy=0;" edge="1" parent="1" source="3ZCdugnIEe6y5VKqGSUt-6" target="3ZCdugnIEe6y5VKqGSUt-7">
          <mxGeometry relative="1" as="geometry">
            <mxPoint x="410" y="560" as="sourcePoint" />
            <mxPoint x="560" y="530" as="targetPoint" />
          </mxGeometry>
        </mxCell>
        <mxCell id="3ZCdugnIEe6y5VKqGSUt-75" value="" style="endArrow=none;html=1;rounded=0;entryX=0;entryY=0.5;entryDx=0;entryDy=0;exitX=1;exitY=1;exitDx=0;exitDy=0;" edge="1" parent="1" source="3ZCdugnIEe6y5VKqGSUt-6" target="3ZCdugnIEe6y5VKqGSUt-5">
          <mxGeometry relative="1" as="geometry">
            <mxPoint x="450" y="650" as="sourcePoint" />
            <mxPoint x="600" y="620" as="targetPoint" />
          </mxGeometry>
        </mxCell>
        <mxCell id="3ZCdugnIEe6y5VKqGSUt-76" value="image_url" style="ellipse;whiteSpace=wrap;html=1;align=center;fontStyle=4;" vertex="1" parent="1">
          <mxGeometry x="-70" y="480" width="100" height="40" as="geometry" />
        </mxCell>
        <mxCell id="3ZCdugnIEe6y5VKqGSUt-77" value="caption" style="ellipse;whiteSpace=wrap;html=1;align=center;" vertex="1" parent="1">
          <mxGeometry x="-70" y="600" width="100" height="40" as="geometry" />
        </mxCell>
        <mxCell id="3ZCdugnIEe6y5VKqGSUt-78" value="" style="endArrow=none;html=1;rounded=0;entryX=1;entryY=1;entryDx=0;entryDy=0;exitX=0;exitY=0.25;exitDx=0;exitDy=0;" edge="1" parent="1" source="3ZCdugnIEe6y5VKqGSUt-51" target="3ZCdugnIEe6y5VKqGSUt-76">
          <mxGeometry relative="1" as="geometry">
            <mxPoint x="120" y="600" as="sourcePoint" />
            <mxPoint x="190" y="440" as="targetPoint" />
          </mxGeometry>
        </mxCell>
        <mxCell id="3ZCdugnIEe6y5VKqGSUt-79" value="" style="endArrow=none;html=1;rounded=0;entryX=0;entryY=0.75;entryDx=0;entryDy=0;exitX=1;exitY=0;exitDx=0;exitDy=0;" edge="1" parent="1" source="3ZCdugnIEe6y5VKqGSUt-77" target="3ZCdugnIEe6y5VKqGSUt-51">
          <mxGeometry relative="1" as="geometry">
            <mxPoint x="120" y="790" as="sourcePoint" />
            <mxPoint x="190" y="630" as="targetPoint" />
          </mxGeometry>
        </mxCell>
        <mxCell id="3ZCdugnIEe6y5VKqGSUt-80" value="" style="endArrow=none;html=1;rounded=0;entryX=1;entryY=0.5;entryDx=0;entryDy=0;exitX=0;exitY=0.5;exitDx=0;exitDy=0;" edge="1" parent="1" source="3ZCdugnIEe6y5VKqGSUt-61" target="3ZCdugnIEe6y5VKqGSUt-7">
          <mxGeometry relative="1" as="geometry">
            <mxPoint x="860" y="495" as="sourcePoint" />
            <mxPoint x="710" y="400" as="targetPoint" />
          </mxGeometry>
        </mxCell>
      </root>
    </mxGraphModel>
  </diagram>
</mxfile>
